<?xml version="1.0" encoding="UTF-8" standalone="no"?>
<svg
   version="1.0"
   width="1600.000000pt"
   height="450.000000pt"
   viewBox="0 0 1600.000000 450.000000"
   preserveAspectRatio="xMidYMid meet"
   id="svg9"
   sodipodi:docname="Logo-abscan.svg"
   inkscape:version="1.3 (0e150ed6c4, 2023-07-21)"
   xmlns:inkscape="http://www.inkscape.org/namespaces/inkscape"
   xmlns:sodipodi="http://sodipodi.sourceforge.net/DTD/sodipodi-0.dtd"
   xmlns="http://www.w3.org/2000/svg"
   xmlns:svg="http://www.w3.org/2000/svg">
  <defs
     id="defs9" />
  <sodipodi:namedview
     id="namedview9"
     pagecolor="#ffffff"
     bordercolor="#000000"
     borderopacity="0.25"
     inkscape:showpageshadow="2"
     inkscape:pageopacity="0.0"
     inkscape:pagecheckerboard="0"
     inkscape:deskcolor="#d1d1d1"
     inkscape:document-units="pt"
     inkscape:zoom="0.6346875"
     inkscape:cx="1066.6667"
     inkscape:cy="300.14771"
     inkscape:window-width="1920"
     inkscape:window-height="991"
     inkscape:window-x="-9"
     inkscape:window-y="-9"
     inkscape:window-maximized="1"
     inkscape:current-layer="svg9" />
  <g
     transform="translate(0.000000,450.000000) scale(0.100000,-0.100000)"
     fill="#000000"
     stroke="none"
     id="g9"
     style="fill:#000050;fill-opacity:1">
    <path
       d="M8907 4070 c-179 -70 -274 -260 -221 -440 40 -135 145 -228 283 -251 164 -26 315 51 388 198 24 51 28 69 28 154 0 90 -2 100 -35 164 -41 81 -109 142 -194 174 -73 27 -181 28 -249 1z"
       id="path1"
       style="fill:#000050;fill-opacity:1" />
    <path
       d="M6280 3529 c-271 -57 -455 -163 -588 -339 -85 -114 -122 -238 -122 -411 0 -204 53 -340 180 -469 149 -151 368 -247 805 -355 238 -58 310 -83 366 -127 92 -70 94 -218 5 -303 -68 -65 -124 -80 -306 -80 -135 1 -163 3 -219 23 -85 30 -109 44 -151 84 -44 42 -77 107 -91 181 -9 49 -16 61 -42 78 -30 18 -49 19 -289 17 -228 -3 -259 -5 -274 -20 -41 -40 -22 -233 35 -368 107 -256 389 -449 751 -516 115 -22 378 -24 490 -5 513 87 774 353 775 791 0 128 -14 203 -56 298 -59 133 -161 234 -311 309 -91 45 -324 125 -488 168 -236 61 -425 139 -494 203 -43 40 -66 99 -59 147 13 91 77 146 215 184 70 20 237 10 317 -18 105 -37 165 -90 211 -187 50 -106 45 -104 315 -104 295 0 281 -8 279 147 -2 89 -6 120 -27 175 -51 135 -128 232 -249 315 -137 94 -257 142 -458 183 -140 28 -384 27 -520 -1z"
       id="path2"
       style="fill:#000050;fill-opacity:1" />
    <path
       d="M1282 3500 c-50 -12 -88 -55 -116 -129 -54 -144 -186 -503 -231 -626 -25 -71 -53 -146 -60 -165 -16 -41 -90 -240 -170 -460 -31 -85 -62 -171 -70 -190 -7 -19 -30 -80 -50 -135 -20 -55 -41 -111 -47 -125 -5 -14 -21 -56 -35 -95 -14 -38 -47 -128 -73 -200 -108 -290 -120 -326 -120 -365 0 -34 4 -42 26 -50 14 -6 133 -10 266 -10 295 0 296 1 341 130 30 84 74 205 90 243 l16 37 468 -2 467 -3 13 -25 c7 -14 36 -90 64 -170 35 -99 61 -154 81 -175 l28 -30 260 -3 c253 -3 260 -2 280 18 18 18 20 28 15 63 -4 23 -11 49 -15 57 -5 9 -36 92 -70 185 -33 94 -67 186 -75 205 -8 19 -50 136 -95 260 -45 124 -87 241 -95 260 -8 19 -39 105 -70 190 -31 85 -63 171 -70 190 -7 19 -30 80 -50 135 -20 55 -43 116 -50 135 -8 19 -35 94 -60 165 -26 72 -69 189 -95 260 -27 72 -63 171 -81 220 -44 124 -63 160 -101 187 -32 22 -40 23 -258 25 -124 1 -240 -2 -258 -7z m291 -905 c20 -60 77 -228 126 -372 48 -144 91 -273 95 -287 l6 -26 -280 0 c-154 0 -280 4 -280 8 0 9 238 727 265 801 11 27 31 -10 68 -124z"
       id="path3"
       style="fill:#000050;fill-opacity:1" />
    <path
       d="M3123 3503 c-13 -2 -32 -16 -43 -30 -20 -25 -20 -37 -20 -1244 l0 -1218 24 -28 24 -28 639 -3 c686 -4 780 1 933 45 353 101 550 349 550 695 0 154 -43 285 -130 403 -43 57 -74 86 -147 139 -29 21 -53 41 -53 45 0 4 12 14 26 22 44 23 131 125 163 191 41 84 61 165 68 273 14 227 -96 457 -282 585 -104 71 -273 128 -445 150 -72 9 -1262 12 -1307 3z m1342 -578 c77 -38 105 -87 105 -182 0 -160 -68 -214 -296 -236 -192 -19 -184 -8 -184 -258 0 -199 7 -237 47 -254 10 -5 79 -11 153 -15 188 -9 260 -42 301 -138 39 -91 16 -204 -55 -270 -72 -67 -120 -73 -521 -70 l-340 3 -3 715 c-1 393 0 721 3 728 4 11 76 13 367 10 l363 -3 60 -30z"
       id="path4"
       style="fill:#000050;fill-opacity:1" />
    <path
       d="M13715 3500 c-16 -5 -36 -17 -42 -27 -10 -13 -13 -277 -13 -1244 0 -1193 1 -1227 19 -1250 19 -24 20 -24 269 -27 l249 -3 32 26 31 27 0 684 c0 572 2 684 14 684 7 0 43 -48 78 -107 59 -98 115 -190 345 -561 93 -151 105 -170 188 -307 39 -63 81 -133 95 -155 14 -22 51 -82 84 -135 64 -105 100 -141 149 -150 18 -4 128 -5 245 -3 l214 3 24 28 24 28 0 1212 c0 1172 -1 1213 -19 1243 -13 21 -30 33 -51 38 -54 10 -434 7 -468 -5 -63 -22 -62 -6 -62 -743 0 -379 -4 -666 -9 -666 -9 0 -103 149 -452 715 -111 182 -220 357 -240 390 -21 33 -52 85 -70 115 -47 81 -106 158 -136 177 -24 16 -56 18 -248 20 -121 1 -233 -2 -250 -7z"
       id="path5"
       style="fill:#000050;fill-opacity:1" />
    <path
       d="M10635 3493 c-38 -10 -64 -35 -81 -78 -21 -55 -7 -104 40 -140 27 -21 44 -25 98 -25 81 0 306 -26 408 -46 500 -102 951 -375 1274 -773 52 -65 166 -226 166 -236 0 -2 15 -28 33 -57 33 -53 81 -149 111 -223 9 -22 21 -48 26 -57 6 -10 10 -23 10 -29 0 -6 6 -25 14 -42 17 -38 50 -149 75 -252 24 -97 43 -241 49 -377 8 -166 17 -188 86 -221 47 -22 81 -16 127 22 l34 29 4 113 c3 115 -7 235 -36 389 -23 131 -67 294 -103 385 -153 392 -318 647 -596 922 -146 144 -317 276 -479 370 -81 46 -288 146 -350 167 -27 10 -59 21 -70 26 -39 16 -191 59 -280 79 -203 44 -489 72 -560 54z"
       id="path6"
       style="fill:#000050;fill-opacity:1" />
    <path
       d="M8484 3441 c-202 -96 -347 -230 -428 -398 -79 -163 -86 -226 -86 -815 0 -570 7 -643 73 -790 76 -171 231 -320 426 -414 274 -131 598 -158 881 -73 402 119 670 419 670 748 0 75 -2 83 -29 113 l-29 33 -242 0 -242 0 -23 -28 c-13 -15 -27 -44 -30 -65 -12 -77 -37 -141 -69 -179 -68 -79 -190 -123 -341 -123 -218 0 -366 98 -416 275 -11 40 -14 144 -14 505 0 404 2 461 17 511 38 120 127 207 253 246 78 23 264 23 347 -1 49 -15 123 -58 153 -90 25 -27 62 -84 74 -114 8 -18 25 -42 39 -52 23 -19 41 -20 264 -20 l239 0 24 25 c21 20 25 34 25 83 0 70 -40 199 -89 290 -39 72 -139 184 -210 236 -53 39 -215 126 -234 126 -7 0 -41 -27 -75 -60 -72 -68 -178 -124 -268 -141 -87 -17 -247 -6 -314 21 -76 30 -183 103 -220 150 -18 22 -35 40 -38 40 -4 0 -44 -18 -88 -39z"
       id="path7"
       style="fill:#000050;fill-opacity:1" />
    <path
       d="M10635 2809 c-17 -5 -44 -22 -60 -39 -24 -25 -29 -39 -29 -80 0 -41 5 -55 29 -80 37 -38 36 -38 211 -55 177 -17 229 -27 349 -66 458 -152 816 -509 968 -965 40 -121 77 -327 77 -430 0 -83 19 -124 71 -153 30 -17 47 -21 72 -15 43 9 75 32 93 65 29 57 11 292 -37 489 -75 303 -258 623 -475 830 -115 109 -245 209 -349 267 -123 68 -225 113 -335 148 -47 15 -94 31 -105 36 -71 29 -421 64 -480 48z"
       id="path8"
       style="fill:#000050;fill-opacity:1" />
    <path
       d="M10609 2115 c-59 -32 -82 -124 -45 -180 24 -36 66 -51 166 -59 109 -9 184 -29 290 -78 82 -38 204 -122 245 -170 151 -175 206 -306 235 -564 9 -84 20 -102 80 -129 38 -17 42 -17 86 0 39 15 49 25 66 63 17 38 20 58 14 121 -13 157 -49 284 -117 417 -120 236 -309 411 -559 517 -148 63 -398 97 -461 62z"
       id="path9"
       style="fill:#000050;fill-opacity:1" />
  </g>
</svg>
